<mxfile host="65bd71144e" modified="2020-11-12T04:55:01.390Z" agent="5.0 (Windows NT 10.0; Win64; x64) AppleWebKit/537.36 (KHTML, like Gecko) Code/1.50.1 Chrome/83.0.4103.122 Electron/9.2.1 Safari/537.36" etag="ixlBo9820aqZ2ahMoLfN" version="13.6.5">
    <diagram id="C5RBs43oDa-KdzZeNtuy" name="Page-1">
        <mxGraphModel dx="220" dy="90" grid="1" gridSize="10" guides="1" tooltips="1" connect="1" arrows="1" fold="1" page="1" pageScale="1" pageWidth="827" pageHeight="1169" math="0" shadow="0">
            <root>
                <mxCell id="WIyWlLk6GJQsqaUBKTNV-0"/>
                <mxCell id="WIyWlLk6GJQsqaUBKTNV-1" parent="WIyWlLk6GJQsqaUBKTNV-0"/>
                <mxCell id="WIyWlLk6GJQsqaUBKTNV-4" value="Yes" style="rounded=0;html=1;jettySize=auto;orthogonalLoop=1;fontSize=11;endArrow=block;endFill=0;endSize=8;strokeWidth=1;shadow=0;labelBackgroundColor=none;edgeStyle=orthogonalEdgeStyle;exitX=0.5;exitY=1;exitDx=0;exitDy=0;" parent="WIyWlLk6GJQsqaUBKTNV-1" source="nHU2NljZmvbzEuZgI8tX-18" edge="1">
                    <mxGeometry y="20" relative="1" as="geometry">
                        <mxPoint as="offset"/>
                        <mxPoint x="660" y="260" as="sourcePoint"/>
                        <mxPoint x="390" y="300" as="targetPoint"/>
                    </mxGeometry>
                </mxCell>
                <mxCell id="nHU2NljZmvbzEuZgI8tX-9" value="" style="rounded=0;html=1;jettySize=auto;orthogonalLoop=1;fontSize=11;endArrow=block;endFill=0;endSize=8;strokeWidth=1;shadow=0;labelBackgroundColor=none;edgeStyle=orthogonalEdgeStyle;entryX=0.5;entryY=0;entryDx=0;entryDy=0;" parent="WIyWlLk6GJQsqaUBKTNV-1" source="nHU2NljZmvbzEuZgI8tX-10" target="nHU2NljZmvbzEuZgI8tX-18" edge="1">
                    <mxGeometry relative="1" as="geometry">
                        <mxPoint x="390" y="190" as="targetPoint"/>
                    </mxGeometry>
                </mxCell>
                <mxCell id="nHU2NljZmvbzEuZgI8tX-10" value="open() (syscall)" style="rounded=1;whiteSpace=wrap;html=1;fontSize=12;glass=0;strokeWidth=1;shadow=0;" parent="WIyWlLk6GJQsqaUBKTNV-1" vertex="1">
                    <mxGeometry x="330" y="100" width="120" height="40" as="geometry"/>
                </mxCell>
                <mxCell id="nHU2NljZmvbzEuZgI8tX-12" value="file_deny_write" style="rounded=0;whiteSpace=wrap;html=1;" parent="WIyWlLk6GJQsqaUBKTNV-1" vertex="1">
                    <mxGeometry x="330" y="300" width="120" height="60" as="geometry"/>
                </mxCell>
                <mxCell id="nHU2NljZmvbzEuZgI8tX-13" value="allocate file in file discriptor" style="rounded=0;whiteSpace=wrap;html=1;" parent="WIyWlLk6GJQsqaUBKTNV-1" vertex="1">
                    <mxGeometry x="330" y="410" width="120" height="60" as="geometry"/>
                </mxCell>
                <mxCell id="nHU2NljZmvbzEuZgI8tX-16" value="" style="rounded=0;html=1;jettySize=auto;orthogonalLoop=1;fontSize=11;endArrow=block;endFill=0;endSize=8;strokeWidth=1;shadow=0;labelBackgroundColor=none;edgeStyle=orthogonalEdgeStyle;exitX=0.5;exitY=1;exitDx=0;exitDy=0;entryX=0.5;entryY=0;entryDx=0;entryDy=0;" parent="WIyWlLk6GJQsqaUBKTNV-1" source="nHU2NljZmvbzEuZgI8tX-12" target="nHU2NljZmvbzEuZgI8tX-13" edge="1">
                    <mxGeometry relative="1" as="geometry">
                        <mxPoint x="400" y="260" as="sourcePoint"/>
                        <mxPoint x="400" y="310" as="targetPoint"/>
                    </mxGeometry>
                </mxCell>
                <mxCell id="nHU2NljZmvbzEuZgI8tX-18" value="is file current thread's?" style="rhombus;whiteSpace=wrap;html=1;shadow=0;fontFamily=Helvetica;fontSize=12;align=center;strokeWidth=1;spacing=6;spacingTop=-4;" parent="WIyWlLk6GJQsqaUBKTNV-1" vertex="1">
                    <mxGeometry x="340" y="180" width="100" height="80" as="geometry"/>
                </mxCell>
                <mxCell id="nHU2NljZmvbzEuZgI8tX-23" value="" style="rounded=0;html=1;jettySize=auto;orthogonalLoop=1;fontSize=11;endArrow=block;endFill=0;endSize=8;strokeWidth=1;shadow=0;labelBackgroundColor=none;edgeStyle=orthogonalEdgeStyle;exitX=0.5;exitY=1;exitDx=0;exitDy=0;" parent="WIyWlLk6GJQsqaUBKTNV-1" source="nHU2NljZmvbzEuZgI8tX-13" edge="1">
                    <mxGeometry x="0.0909" y="60" relative="1" as="geometry">
                        <mxPoint as="offset"/>
                        <mxPoint x="450" y="490" as="sourcePoint"/>
                        <mxPoint x="390" y="525" as="targetPoint"/>
                    </mxGeometry>
                </mxCell>
                <mxCell id="nHU2NljZmvbzEuZgI8tX-25" value="No" style="rounded=0;html=1;jettySize=auto;orthogonalLoop=1;fontSize=11;endArrow=block;endFill=0;endSize=8;strokeWidth=1;shadow=0;labelBackgroundColor=none;edgeStyle=orthogonalEdgeStyle;entryX=1;entryY=0.5;entryDx=0;entryDy=0;exitX=1;exitY=0.5;exitDx=0;exitDy=0;" parent="WIyWlLk6GJQsqaUBKTNV-1" source="nHU2NljZmvbzEuZgI8tX-18" target="nHU2NljZmvbzEuZgI8tX-13" edge="1">
                    <mxGeometry y="20" relative="1" as="geometry">
                        <mxPoint as="offset"/>
                        <mxPoint x="340" y="450" as="sourcePoint"/>
                        <mxPoint x="450" y="554.5" as="targetPoint"/>
                        <Array as="points">
                            <mxPoint x="470" y="220"/>
                            <mxPoint x="470" y="440"/>
                        </Array>
                    </mxGeometry>
                </mxCell>
                <mxCell id="nHU2NljZmvbzEuZgI8tX-28" value="&lt;span style=&quot;font-size: 12px&quot;&gt;return file descriptor number&lt;/span&gt;" style="rounded=1;whiteSpace=wrap;html=1;fontSize=9;" parent="WIyWlLk6GJQsqaUBKTNV-1" vertex="1">
                    <mxGeometry x="330" y="525" width="120" height="45" as="geometry"/>
                </mxCell>
            </root>
        </mxGraphModel>
    </diagram>
</mxfile>